<svg xmlns="http://www.w3.org/2000/svg" width="591.50067" height="593.70966" style="clip-rule:evenodd;fill-rule:evenodd;image-rendering:optimizeQuality;shape-rendering:geometricPrecision;text-rendering:geometricPrecision" viewBox="0 0 591.50067 593.70966"><path fill="none" d="M-11.173-6.387h612.324v606.053H-11.173z" style="fill:#010110;fill-opacity:0"/><defs><linearGradient id="b" x1="0" x2="1" y1="0" y2="0" gradientTransform="scale(-44.37197 44.37197)rotate(29.421 -21.948 -8.908)" gradientUnits="userSpaceOnUse" spreadMethod="pad"><stop offset="0" style="stop-opacity:1;stop-color:#fff"/><stop offset="0.2" style="stop-opacity:1;stop-color:#e7eb8e"/><stop offset="0.76" style="stop-opacity:1;stop-color:#aacc03"/><stop offset="1" style="stop-opacity:1;stop-color:#8dc21f"/></linearGradient><linearGradient id="c" x1="0" x2="1" y1="0" y2="0" gradientTransform="scale(-43.32594 43.32594)rotate(33.701 -20.486 -6.962)" gradientUnits="userSpaceOnUse" spreadMethod="pad"><stop offset="0" style="stop-opacity:1;stop-color:#e5ea90"/><stop offset="0.12429772" style="stop-opacity:1;stop-color:#c7da58"/><stop offset="0.2" style="stop-opacity:1;stop-color:#c7da58"/><stop offset="0.4" style="stop-opacity:1;stop-color:#a1c710"/><stop offset="0.93338074" style="stop-opacity:1;stop-color:#65b12f"/><stop offset="1" style="stop-opacity:1;stop-color:#65b12f"/></linearGradient><linearGradient id="d" x1="0" x2="1" y1="0" y2="0" gradientTransform="scale(-43.3213 43.3213)rotate(33.701 -20.824 -7.065)" gradientUnits="userSpaceOnUse" spreadMethod="pad"><stop offset="0" style="stop-opacity:1;stop-color:#e5ea90"/><stop offset="0.12429772" style="stop-opacity:1;stop-color:#c7da58"/><stop offset="0.2" style="stop-opacity:1;stop-color:#c7da58"/><stop offset="0.4" style="stop-opacity:1;stop-color:#a1c710"/><stop offset="0.93338074" style="stop-opacity:1;stop-color:#65b12f"/><stop offset="1" style="stop-opacity:1;stop-color:#65b12f"/></linearGradient><linearGradient id="e" x1="0" x2="1" y1="0" y2="0" gradientTransform="scale(-43.3245 43.3245)rotate(33.701 -19.604 -6.695)" gradientUnits="userSpaceOnUse" spreadMethod="pad"><stop offset="0" style="stop-opacity:1;stop-color:#e5ea90"/><stop offset="0.12429772" style="stop-opacity:1;stop-color:#c7da58"/><stop offset="0.2" style="stop-opacity:1;stop-color:#c7da58"/><stop offset="0.4" style="stop-opacity:1;stop-color:#a1c710"/><stop offset="0.93338074" style="stop-opacity:1;stop-color:#65b12f"/><stop offset="1" style="stop-opacity:1;stop-color:#65b12f"/></linearGradient><linearGradient id="f" x1="0" x2="1" y1="0" y2="0" gradientTransform="scale(-43.32192 43.32192)rotate(33.701 -19.301 -6.603)" gradientUnits="userSpaceOnUse" spreadMethod="pad"><stop offset="0" style="stop-opacity:1;stop-color:#e5ea90"/><stop offset="0.12429772" style="stop-opacity:1;stop-color:#c7da58"/><stop offset="0.2" style="stop-opacity:1;stop-color:#c7da58"/><stop offset="0.4" style="stop-opacity:1;stop-color:#a1c710"/><stop offset="0.93338074" style="stop-opacity:1;stop-color:#65b12f"/><stop offset="1" style="stop-opacity:1;stop-color:#65b12f"/></linearGradient><clipPath id="a" clipPathUnits="userSpaceOnUse"><path d="M0 858.898h612.283V0H0Z"/></clipPath><clipPath id="g" clipPathUnits="userSpaceOnUse"><path d="M0 858.898h612.283V0H0Z"/></clipPath></defs><g clip-path="url(#a)" transform="matrix(3.69845 0 0 -3.69845 -836.386 1887.03)"><path d="M0 0s-1.361-1.433-1.527-1.605c.183-.172 3.257-3.104 3.257-3.104L-.006-6.53l-3.258 3.101a331 331 0 0 1-1.632-1.716l3.253-3.102-2.306-2.423c.164-.158 1.355-1.29 1.519-1.447C-2.246-11.925 8.664-.472 8.85-.28c-.168.157-1.362 1.291-1.522 1.448L3.367-2.988.109.114C.059.059 0 0 0 0" style="fill:#76777b;fill-opacity:1;fill-rule:nonzero;stroke:none" transform="translate(359.907 381.18)"/><path d="M0 0c-.187.182-6.521 6.216-6.709 6.396l-.109-.113s-9.475-9.945-9.659-10.141l1.516-1.445 8.137 8.541s5.006-4.769 5.197-4.949z" style="fill:#76777b;fill-opacity:1;fill-rule:nonzero;stroke:none" transform="translate(364.519 382.912)"/><path d="M0 0c.884.824 2.347.702 3.255-.268.912-.978.94-2.443.058-3.268-.883-.827-2.344-.707-3.267.265C-.859-2.29-.879-.825 0 0m-1.52 1.586c-1.658-1.553-1.604-4.314.125-6.158 1.729-1.847 4.479-2.091 6.141-.537 1.656 1.55 1.604 4.317-.127 6.163C2.891 2.903.141 3.14-1.52 1.586" style="fill:#76777b;fill-opacity:1;fill-rule:nonzero;stroke:none" transform="translate(250.048 376.343)"/><path d="M0 0s-1.298 1.386-1.459 1.553L-3.351-.22l-1.844 1.973A327 327 0 0 1-6.666.374c.159-.168 1.842-1.969 1.842-1.969l-2.49-2.331c.152-.162 1.404-1.503 1.561-1.665C-5.568-5.42-.08-.282.104-.109z" style="fill:#76777b;fill-opacity:1;fill-rule:nonzero;stroke:none" transform="translate(263.704 379.689)"/><path d="M0 0s-8.366-.347-8.629-.36c.016-.228.138-2.065.156-2.286.25.017 6.184.354 6.184.354s-.725-5.567-.76-5.817c.22-.029 2.043-.279 2.266-.306.027.257.928 8.127.963 8.424C.09.009 0 0 0 0" style="fill:#76777b;fill-opacity:1;fill-rule:nonzero;stroke:none" transform="translate(256.735 387.204)"/><path d="m0 0 2.264.39-2.567 14.92c-.072-.016-.152-.029-.152-.029s-1.877-.324-2.108-.362c.04-.253.792-4.586.792-4.586l-1.336-.229s-.747 4.334-.786 4.586l-2.287-.394 1.633-9.474c-1.81-.31-7.176-1.234-7.176-1.234l-1.256 7.289 5.301.913L-8 13.679l-.033-.006-7.524-1.295c.465-2.687 1.895-10.97 1.93-11.183l9.422 1.618.594-3.44 2.285.389L-2.762 8.1l1.332.228z" style="fill:#76777b;fill-opacity:1;fill-rule:nonzero;stroke:none" transform="translate(325.294 351.855)"/><path d="m0 0-2.044 1.087-2.534-4.756 12.444-6.627.97 1.815c-.234.12-10.404 5.535-10.404 5.535S-.115-.222 0 0m12.471-2.714-.697.371 2.809 5.28c-.067.035-.138.068-.138.068S2.617 9.303 2.387 9.424L1.42 7.609 11.566 2.21S10.44.096 9.727-1.254l-11.065 5.89-.963-1.811C-2.08 2.709 2.047.514 2.047.514S.889-1.657.779-1.87l2.073-1.106c.111.213 1.272 2.384 1.272 2.384l1.845-.982s-1.154-2.169-1.27-2.381l2.076-1.108c.11.212 1.268 2.383 1.268 2.383s3.383-1.799 3.6-1.917l.963 1.813z" style="fill:#76777b;fill-opacity:1;fill-rule:nonzero;stroke:none" transform="translate(266.708 366.055)"/><path d="M0 0s.375 2.378.41 2.616c-.066.007-.145.02-.145.02s-1.904.302-2.138.336l-.971-6.183-2.316.363.924 5.911-.147.023s-9.334 1.464-9.588 1.505l-.322-2.034c.253-.038 7.447-1.166 7.447-1.166s-.416-2.666-.61-3.877c-1.296.201-2.304.36-2.304.36l.344 2.164-.147.02s-1.945.307-2.177.341l-.337-2.16s-3.296.516-3.538.555l-.319-2.032L-3.16-5.243l-.373-2.371 2.283-.359c.041.25.934 5.958.934 5.958s2.109-.332 2.347-.371l.313 2.017zm-12.725-5.159-.148.023s-1.908.298-2.141.333l-.838-5.325 14.033-2.202.317 2.029L-13.24-8.46z" style="fill:#76777b;fill-opacity:1;fill-rule:nonzero;stroke:none" transform="translate(301.73 362.023)"/><path d="m0 0-1.869-1.035c.129-.217 4.201-7.566 4.326-7.787.195.106 1.801.996 1.996 1.105-.117.22-2.084 3.763-2.084 3.763l2.027 1.126c-.103.19-.865 1.566-.974 1.756L1.393-2.196.131.078C.066.038 0 0 0 0" style="fill:#76777b;fill-opacity:1;fill-rule:nonzero;stroke:none" transform="translate(343.128 376.121)"/><path d="m0 0-12.463-6.915c.108-.196.879-1.587.988-1.777L-.879-2.816S.512-5.32.627-5.536c.199.113 1.805 1.002 2.002 1.114C2.51-4.205.254-.144.133.071.064.037 0 0 0 0" style="fill:#76777b;fill-opacity:1;fill-rule:nonzero;stroke:none" transform="translate(347.94 367.4)"/><path d="M0 0c-1.076-.596-2.406-.254-2.971.768-.566 1.015-.154 2.321.922 2.92 1.074.595 2.401.251 2.967-.768C1.482 1.904 1.068.596 0 0m1.547 8.202-3.713-2.059-.012-.001-.677 1.221-2.032-1.122.682-1.228L-7.98 2.92l.945-1.698 1.361.754a4.2 4.2 0 0 1 .51-2.369c1.18-2.123 3.955-2.838 6.199-1.59 2.244 1.239 3.106 3.975 1.93 6.1a4.24 4.24 0 0 1-1.74 1.685l1.263.706z" style="fill:#76777b;fill-opacity:1;fill-rule:nonzero;stroke:none" transform="translate(337.776 365.495)"/><path d="m0 0-1.75 1.097C.092 1.941.148 3.782.148 3.782.219 5.218-.621 6.255-1.85 6.247c-1.623-.013-2.216-1.449-2.898-3.108-.744-1.784-1.885-3.656-4.154-3.792-2.746-.166-4.606 2.26-4.467 5.601.137 3.249 2.381 4.807 2.381 4.807l2.064-.95s-2.902-.957-3.086-4.455c-.082-1.55 1.055-2.75 2.574-2.742 1.625.014 2.202 1.4 2.87 3.014.748 1.806 1.593 3.854 4.179 3.875 2.53.019 4.061-1.984 3.91-5.098 0 0-.041-1.992-1.523-3.399" style="fill:#76777b;fill-opacity:1;fill-rule:nonzero;stroke:none" transform="translate(384.544 423.805)"/><path d="m0 0 2.049-.223C.762-1.789 1.518-3.47 1.518-3.47c.566-1.321 1.774-1.886 2.875-1.341 1.455.724 1.359 2.275 1.25 4.066-.114 1.93.094 4.108 2.074 5.225 2.396 1.351 5.133-.016 6.467-3.081 1.3-2.981-.034-5.364-.034-5.364l-2.279-.051s2.196 2.133.826 5.358c-.603 1.429-2.152 2.013-3.513 1.335-1.457-.72-1.367-2.219-1.26-3.962.119-1.952.252-4.164-2.065-5.313-2.263-1.123-4.517.007-5.742 2.874 0 0-.838 1.808-.117 3.724" style="fill:#76777b;fill-opacity:1;fill-rule:nonzero;stroke:none" transform="translate(232.723 401.032)"/><path d="m0 0-.148-.141C-.411-.41-1.908-1.975-2.555-5.08c-.99-4.761 1.227-8.295 5.602-9.204 4.472-.929 7.724 1.292 8.691 5.951.381 1.821.451 3.693.207 5.571l-.023.178-5.436 1.13-.461-2.215 4.586-.943c.264-1.071.158-2.168.004-2.917-.748-3.6-3.293-5.139-7.166-4.333-3.625.752-5.472 3.137-4.785 6.445C-.988-3.75.1-2.113 1.457-1.35l.098.06z" style="fill:#76777b;fill-opacity:1;fill-rule:nonzero;stroke:none" transform="translate(230.501 452.406)"/><path d="m0 0-1.272-1.812 3.223-6.719-7.428.734-1.617-2.303 9.672-.554 4.84-3.392 1.297 1.848S3.83-8.777 3.728-8.708z" style="fill:#76777b;fill-opacity:1;fill-rule:nonzero;stroke:none" transform="translate(244.23 480.747)"/><path d="m0 0 .887 2.023-4.471 5.961 7.43.73 1.136 2.576-9.593-1.346-5.409 2.386-.914-2.068s5.463-2.401 5.575-2.449z" style="fill:#76777b;fill-opacity:1;fill-rule:nonzero;stroke:none" transform="translate(376.501 392.058)"/><path d="m0 0-3.002 8.752-1.016-2.061 2.828-8.23-5.531 2.725-.998-2.028 12.698-6.24.997 2.034-6.154 3.016L8.512.103l1.263 2.575z" style="fill:#76777b;fill-opacity:1;fill-rule:nonzero;stroke:none" transform="translate(239.773 460.986)"/><path d="m0 0 4.184 8.256-2.192-.711-3.924-7.762C-2.069.189-3.828 5.65-3.828 5.65l-2.157-.699 4.381-13.456 2.155.699-2.125 6.52 7.586-4.742 2.728.889z" style="fill:#76777b;fill-opacity:1;fill-rule:nonzero;stroke:none" transform="translate(282.13 499.054)"/><path d="m0 0 1.694.169 2.662 11.182L8.922.892l1.941.19 3.288 14.552-1.946-.192L9.543 3.933 4.836 14.706l-1.289-.127L.915 3.091l-4.448 10.775-2.379-.231Z" style="fill:#76777b;fill-opacity:1;fill-rule:nonzero;stroke:none" transform="translate(293.932 494.588)"/><path d="M0 0c.244-.829.975-4.026 1.141-4.59l-3.45.416zm1.119 3.101-.996.12-7.748-13.502 1.93-.241 2.851 5.067 4.336-.523 1.502-5.594 2.637-.318z" style="fill:#76777b;fill-opacity:1;fill-rule:nonzero;stroke:none" transform="translate(314.786 506.073)"/><path d="m0 0-11.711-7.929 1.262-1.866L1.258-1.863z" style="fill:#76777b;fill-opacity:1;fill-rule:nonzero;stroke:none" transform="translate(371.37 475.528)"/><path d="m0 0-13.965 2.24-.357-2.221 13.967-2.24z" style="fill:#76777b;fill-opacity:1;fill-rule:nonzero;stroke:none" transform="translate(384.892 418.413)"/><path d="M0 0c-1.971-2.881-4.053-3.351-6.27-1.833-2.501 1.713-2.585 3.437-.5 6.488l4.461 6.515-1.853 1.265-4.568-6.682c-.965-1.445-1.864-3.096-1.458-4.787.352-1.466 1.346-2.74 2.987-3.863 3.135-2.146 6.064-1.613 8.25 1.583l4.754 6.943-1.33.912z" style="fill:#76777b;fill-opacity:1;fill-rule:nonzero;stroke:none" transform="translate(350.218 486.68)"/><path d="M0 0c2.447-2.492 2.506-4.623.588-6.506-2.165-2.122-3.87-1.874-6.457.765l-5.533 5.634-1.6-1.574 5.671-5.77c1.237-1.227 2.679-2.428 4.419-2.357 1.504.061 2.949.789 4.369 2.182 2.709 2.662 2.752 5.639.041 8.402l-5.9 6.004-1.149-1.129z" style="fill:#76777b;fill-opacity:1;fill-rule:nonzero;stroke:none" transform="translate(258.817 484.236)"/><path d="M0 0c3.4.81 5.256-.237 5.877-2.853.705-2.95-.389-4.281-3.984-5.139L-5.79-9.826l.524-2.184 7.869 1.885c1.69.425 3.463 1.041 4.295 2.572.727 1.318.916 2.947.455 4.878C6.47 1.02 3.875 2.577.109 1.679L-8.077-.274l.374-1.57z" style="fill:#76777b;fill-opacity:1;fill-rule:nonzero;stroke:none" transform="translate(235.138 417.494)"/><path d="m0 0 .586-1.138L15.885.057l-.94 1.821L2.9.692l7.959 9.112-1.156 2.243Z" style="fill:#76777b;fill-opacity:1;fill-rule:nonzero;stroke:none" transform="translate(364.114 460.431)"/><path d="m0 0 4.932 1.565 1.486-4.676 1.367.436L6.305 2l4.455 1.413 1.613-5.097 1.16.366-2.291 7.234-13.484-4.274L.086-5.713l1.568.498z" style="fill:#76777b;fill-opacity:1;fill-rule:nonzero;stroke:none" transform="translate(369.571 451.763)"/><path d="m0 0-1.135.319-1.185-4.228c-.463.131-12.483 3.495-12.483 3.495l-.607-2.159 12.476-3.498-1.125-4.051 1.143-.313z" style="fill:#76777b;fill-opacity:1;fill-rule:nonzero;stroke:none" transform="translate(384.251 413.586)"/><path d="M0 0c.408.053 4.268.565 4.682.62l.283-2.126c.23-1.765-.699-2.645-1.971-2.765C1.668-4.395.578-3.84.254-1.852Zm-8.43 1.146.282-2.229 6.818.906-6.02-6.927.317-2.382 6.017 6.888C-.617-4.897 1.25-6.72 3.285-6.451c2.32.309 3.309 1.908 2.899 5.027l-.588 4.428Z" style="fill:#76777b;fill-opacity:1;fill-rule:nonzero;stroke:none" transform="translate(378.71 442.693)"/><path d="m0 0-1.365-.868 5.397-8.494C-.941-8.078-9.605-6.105-9.605-6.105l-.971-.613 7.58-11.936 1.368.866s-3.153 4.968-5.681 8.944l14.083-3.608.82.516z" style="fill:#76777b;fill-opacity:1;fill-rule:nonzero;stroke:none" transform="translate(268.67 500.587)"/><path d="m0 0 .033-1.619 10.065.214C6.424-4.993.245-11.382.245-11.382l.021-1.144 14.142.298-.034 1.619-10.595-.224L14.161-.661l-.02.971z" style="fill:#76777b;fill-opacity:1;fill-rule:nonzero;stroke:none" transform="translate(226.145 434.675)"/><path d="m0 0-1.535.517-3.207-9.541c-2.131 4.673-6.051 12.649-6.051 12.649l-1.086.369-4.506-13.407 1.533-.515L-11.475.115l6.055-13.213.92-.309z" style="fill:#76777b;fill-opacity:1;fill-rule:nonzero;stroke:none" transform="translate(337.204 503.513)"/><path d="m0 0-1.104 1.184-7.371-6.855c.356 5.124.719 14.005.719 14.005l-.779.841-10.356-9.633 1.1-1.184s4.311 4.006 7.76 7.217l-.983-14.503.66-.71z" style="fill:#76777b;fill-opacity:1;fill-rule:nonzero;stroke:none" transform="translate(368.558 479.67)"/></g><path d="M274.656 465.582c-17.342-17.388-18.25-44.947-2.769-63.413 4.003 5.255 9.485 11.322 16.217 16.065 5.254 3.707 12.553 7.416 18.419 7.977 5.554.529 13.826.005 18.838-2.395-3.922 4.012-8.055 8.509-10.081 11.202a20.84 20.84 0 0 0-4.197 12.556c-.013 11.556 9.316 20.937 20.844 20.952a20.7 20.7 0 0 0 7.879-1.538c-8.991 8.275-20.421 12.412-31.846 12.413-12.059.001-24.113-4.606-33.304-13.819" style="fill:url(#b);stroke:none" transform="matrix(3.69845 0 0 -3.69845 -836.386 1887.03)"/><path d="m276.107 466.965 33.369-34.636.144-.054-22.11 42.456a46.9 46.9 0 0 1-11.403-7.766" style="fill:url(#c);stroke:none" transform="matrix(3.69845 0 0 -3.69845 -836.386 1887.03)"/><path d="m301.135 478.895 8.558-46.647.045-.016 2.853 46.93a47.353 47.353 0 0 1-11.456-.267" style="fill:url(#d);stroke:none" transform="matrix(3.69845 0 0 -3.69845 -836.386 1887.03)"/><path d="m261.123 436.667 48.468-4.459-.115.121-45.461 16.822a47.2 47.2 0 0 1-2.892-12.484" style="fill:url(#e);stroke:none" transform="matrix(3.69845 0 0 -3.69845 -836.386 1887.03)"/><path d="M261.427 425.531a47 47 0 0 1 2.475-9.65l45.558 16.207z" style="fill:url(#f);stroke:none" transform="matrix(3.69845 0 0 -3.69845 -836.386 1887.03)"/><g clip-path="url(#g)" transform="matrix(3.69845 0 0 -3.69845 -836.386 1887.03)"><path d="M0 0c-1.369 1.194-3.713 3.401-5.812 6.104-9.622 10.764-20.627 39.017-2.405 64.679 7.524 10.581 18.325 17.71 29.061 20.61a53.29 53.29 0 0 0 53.121-14.576c.981-1.061.842-2.416.098-3.042-1.092-.919-2.076-.443-4.281.193-3.432.993-6.387 1.223-9.565.814-7.355-.947-13.72-7.78-12.826-17.31.818-8.7 7.537-14.977 12.252-19.12C76.213 23.801 70.696 8.173 69.35 4.739 64.79-6.918 53.075-15.15 37.872-15.169c-6.313-.008-15.438 1.617-24.616 7.418-.353.158-.705.632-.273 1.413.697 1.773 3.619 6.944 4.88 8.437C22.428-3.162 30.127-8.109 38.67-8.411c11.68-.412 19.2 5.918 21.946 13.944 3.088 9.016-.221 18.196-8.959 26.474-7.532 7.135-14.254 13.737-14.66 25.07-.516 14.516 12.111 23.155 23.857 22.593.354-.018-16.254 11.931-37.539 4.774-10.419-3.507-16.649-9.667-19.637-13.171-.445-.543-.164-.954-.01-1.172.332-.475 7.584-10.562 7.584-10.562l-13.061 2.986s-.545.129-.814-.315C-6.765 55.047-12.854 34.35.829 15.52c0 0 11.607 18.441 34.703 20.042 1.537.104 1.343-.447.334-.813C15.243 27.14 7.121 11.997 1.877.32 1.555-.402.699-.615 0 0" style="fill:#003c71;fill-opacity:1;fill-rule:nonzero;stroke:none" transform="translate(271.024 390.668)"/><path d="M0 0s1.287.576 1.653.779l.013-8.947 1.62.002L3.27 2.358l-.262.174-.084-.042A52 52 0 0 0-.48.934Z" style="fill:#76777b;fill-opacity:1;fill-rule:nonzero;stroke:none" transform="translate(292.274 404.912)"/><path d="M0 0c1.31.002 1.949-.675 1.951-2.063.002-1.42-.879-2.341-2.244-2.342-.989-.001-1.659.661-1.902.944l-.201.233-.387-1.393.125-.059a5.16 5.16 0 0 1 2.335-.537c2.307.003 3.981 1.41 3.979 3.346C3.654-.097 2.285.411 1.451.56c.908.386 1.726 1.218 1.725 2.476C3.173 4.512 2.01 5.419.143 5.424c-1.583.009-2.389-1.031-2.389-1.031l.693-1.204.117.339c.186.542.766 1.091 1.52 1.093.667 0 1.443-.438 1.445-1.683C1.531 1.97 1.264.815-.002.814l-.84.065.002-.994S-.371.01 0 0" style="fill:#76777b;fill-opacity:1;fill-rule:nonzero;stroke:none" transform="translate(300.876 402.014)"/><path d="M0 0c-1.131-.001-1.68.74-1.682 2.259-.002 1.536.731 2.568 1.827 2.569 1.093.001 1.832-.872 1.834-2.175C1.98 1.336 1.303.003 0 0m-2.939-2.926.433-1.701s.672-.387 1.615-.383c2.7.013 4.582 2.54 4.577 6.168C3.682 5.201 1.215 5.634.158 5.633c-2.054-.004-3.486-1.392-3.484-3.376C-3.322.316-2.146-.888-.25-.885c.963.001 1.713.38 2.27 1.088-.108-2.26-.999-4.324-2.844-4.337-1.481-.012-2.115 1.208-2.115 1.208" style="fill:#76777b;fill-opacity:1;fill-rule:nonzero;stroke:none" transform="translate(309.683 401.817)"/><path d="M0 0c-1.113-.002-1.865.943-1.867 2.352s.748 2.353 1.861 2.354 1.86-.942 1.861-2.35C1.857.927 1.131.001 0 0m-1.434 7.268c0 .412.102 1.754 1.436 1.757 1.316.001 1.461-1.226 1.463-1.754 0-.412-.104-1.756-1.459-1.757-1.334-.003-1.44 1.341-1.44 1.754M1.504 5.24c.918.411 1.514 1.241 1.512 2.231 0 1.089-.793 2.36-3.03 2.358-1.697-.003-2.972-1.096-2.97-2.545 0-1.08.734-1.84 1.521-2.13-1.307-.518-2.047-1.522-2.045-2.88C-3.506.426-2.098-.815 0-.812c2.035.001 3.508 1.45 3.506 3.439-.004 1.837-1.36 2.433-2.002 2.613" style="fill:#76777b;fill-opacity:1;fill-rule:nonzero;stroke:none" transform="translate(318.294 397.632)"/></g></svg>